# Blender v2.81 (sub 16) OBJ File: 'Monitor.blend'
# www.blender.org
mtllib Monitor-Frame.mtl
o Frame_Cylinder
v 0.000000 0.000000 -0.628237
v 0.000000 0.100000 -0.628237
v 0.622563 0.000000 -0.616166
v 0.622563 0.100000 -0.616166
v 0.740416 0.000000 -0.580416
v 0.740416 0.100000 -0.580416
v 0.849030 0.000000 -0.522360
v 0.849030 0.100000 -0.522360
v 0.944231 0.000000 -0.444231
v 0.944231 0.100000 -0.444231
v 1.022360 0.000000 -0.349030
v 1.022360 0.100000 -0.349030
v 1.080416 0.000000 -0.240416
v 1.080416 0.100000 -0.240416
v 1.116166 0.000000 -0.122563
v 1.116166 0.100000 -0.122563
v 1.128237 0.000000 -0.000000
v 1.128237 0.100000 -0.000000
v 1.116166 0.000000 0.122563
v 1.116166 0.100000 0.122563
v 1.080416 0.000000 0.240416
v 1.080416 0.100000 0.240416
v 1.022360 0.000000 0.349030
v 1.022360 0.100000 0.349030
v 0.944231 0.000000 0.444231
v 0.944231 0.100000 0.444231
v 0.849030 0.000000 0.522360
v 0.849030 0.100000 0.522360
v 0.740416 0.000000 0.580416
v 0.740416 0.100000 0.580416
v 0.622563 0.000000 0.616166
v 0.622563 0.100000 0.616166
v -0.000000 0.000000 0.628237
v -0.000000 0.100000 0.628237
v -0.622563 0.000000 0.616166
v -0.622563 0.100000 0.616166
v -0.740416 0.000000 0.580415
v -0.740416 0.100000 0.580415
v -0.849030 0.000000 0.522360
v -0.849030 0.100000 0.522360
v -0.944231 0.000000 0.444230
v -0.944231 0.100000 0.444230
v -1.022361 0.000000 0.349029
v -1.022361 0.100000 0.349029
v -1.080416 0.000000 0.240415
v -1.080416 0.100000 0.240415
v -1.116166 0.000000 0.122562
v -1.116166 0.100000 0.122562
v -1.128237 0.000000 -0.000001
v -1.128237 0.100000 -0.000001
v -1.116166 0.000000 -0.122564
v -1.116166 0.100000 -0.122564
v -1.080415 0.000000 -0.240417
v -1.080415 0.100000 -0.240417
v -1.022360 0.000000 -0.349031
v -1.022360 0.100000 -0.349031
v -0.944230 0.000000 -0.444232
v -0.944230 0.100000 -0.444232
v -0.849029 0.000000 -0.522361
v -0.849029 0.100000 -0.522361
v -0.740415 0.000000 -0.580416
v -0.740415 0.100000 -0.580416
v -0.622562 0.000000 -0.616166
v -0.622562 0.100000 -0.616166
v -2.000000 1.100000 0.000000
v 2.000000 1.100000 0.000000
v -2.000000 4.100000 -0.000000
v 2.000000 4.100000 -0.000000
v -2.000000 1.100000 0.078458
v 2.000000 1.100000 0.078458
v -2.000000 4.100000 0.078458
v 2.000000 4.100000 0.078458
v -2.147416 0.824625 0.081654
v 2.147416 0.824625 0.081654
v -2.147416 4.242236 0.081654
v 2.147416 4.242236 0.081654
v -2.147416 0.824625 -0.133485
v 2.147416 0.824625 -0.133485
v -2.147416 4.242236 -0.133485
v 2.147416 4.242236 -0.133485
v -1.796325 1.252756 -0.213311
v 1.796326 1.252756 -0.213311
v -1.796325 3.947244 -0.213311
v 1.796326 3.947244 -0.213311
v -1.146816 1.739887 -0.276315
v 1.146817 1.739887 -0.276315
v -1.146816 3.460112 -0.276315
v 1.146817 3.460112 -0.276315
v -0.462184 2.352893 -0.315693
v 0.462184 2.352893 -0.315693
v -0.462184 2.847107 -0.315693
v 0.462184 2.847107 -0.315693
v -0.462184 2.352893 -0.513968
v 0.462184 2.352893 -0.513968
v -0.462184 2.847107 -0.513968
v 0.462184 2.847107 -0.513968
v -0.346277 2.414862 -0.564522
v 0.346277 2.414862 -0.564522
v -0.346277 2.785137 -0.564522
v 0.346277 2.785137 -0.564522
v -0.190217 2.498300 -0.576502
v 0.190217 2.498300 -0.576502
v -0.190217 2.701700 -0.576502
v 0.190217 2.701700 -0.576502
v -0.305701 2.278451 -0.349258
v 0.305701 2.278451 -0.349258
v -0.305701 2.278451 -0.480403
v 0.305701 2.278451 -0.480403
v -0.305701 0.100000 -0.349258
v 0.305701 0.100000 -0.349258
v -0.305701 0.100000 -0.480403
v 0.305701 0.100000 -0.480403
v 0.000000 0.000000 -0.628237
v 0.622563 0.000000 -0.616166
v 0.622563 0.100000 -0.616166
v 0.000000 0.100000 -0.628237
v 0.740416 0.000000 -0.580416
v 0.740416 0.100000 -0.580416
v 0.849030 0.000000 -0.522360
v 0.849030 0.100000 -0.522360
v 0.944231 0.000000 -0.444231
v 0.944231 0.100000 -0.444231
v 1.022360 0.000000 -0.349030
v 1.022360 0.100000 -0.349030
v 1.080416 0.000000 -0.240416
v 1.080416 0.100000 -0.240416
v 1.116166 0.000000 -0.122563
v 1.116166 0.100000 -0.122563
v 1.128237 0.000000 -0.000000
v 1.128237 0.100000 -0.000000
v 1.116166 0.000000 0.122563
v 1.116166 0.100000 0.122563
v 1.080416 0.000000 0.240416
v 1.080416 0.100000 0.240416
v 1.022360 0.000000 0.349030
v 1.022360 0.100000 0.349030
v 0.944231 0.000000 0.444231
v 0.944231 0.100000 0.444231
v 0.849030 0.000000 0.522360
v 0.849030 0.100000 0.522360
v 0.740416 0.000000 0.580416
v 0.740416 0.100000 0.580416
v 0.622563 0.000000 0.616166
v 0.622563 0.100000 0.616166
v -0.000000 0.000000 0.628237
v -0.000000 0.100000 0.628237
v -0.622563 0.000000 0.616166
v -0.622563 0.100000 0.616166
v -0.740416 0.000000 0.580415
v -0.740416 0.100000 0.580415
v -0.849030 0.000000 0.522360
v -0.849030 0.100000 0.522360
v -0.944231 0.000000 0.444230
v -0.944231 0.100000 0.444230
v -1.022361 0.000000 0.349029
v -1.022361 0.100000 0.349029
v -1.080416 0.000000 0.240415
v -1.080416 0.100000 0.240415
v -1.116166 0.000000 0.122562
v -1.116166 0.100000 0.122562
v -1.128237 0.000000 -0.000001
v -1.128237 0.100000 -0.000001
v -1.116166 0.000000 -0.122564
v -1.116166 0.100000 -0.122564
v -1.080415 0.000000 -0.240417
v -1.080415 0.100000 -0.240417
v -1.022360 0.000000 -0.349031
v -1.022360 0.100000 -0.349031
v -0.944230 0.000000 -0.444232
v -0.944230 0.100000 -0.444232
v -0.849029 0.000000 -0.522361
v -0.849029 0.100000 -0.522361
v -0.740415 0.000000 -0.580416
v -0.740415 0.100000 -0.580416
v -0.622562 0.000000 -0.616166
v -0.622562 0.100000 -0.616166
v -2.000000 4.100000 -0.000000
v -2.000000 1.100000 0.000000
v 2.000000 1.100000 0.000000
v 2.000000 4.100000 -0.000000
v -2.000000 4.100000 0.078458
v -2.000000 4.100000 0.078458
v -2.000000 1.100000 0.078458
v -2.000000 1.100000 0.078458
v 2.000000 1.100000 0.078458
v 2.000000 1.100000 0.078458
v 2.000000 4.100000 0.078458
v 2.000000 4.100000 0.078458
v -2.147416 4.242236 0.081654
v -2.147416 0.824625 0.081654
v -2.147416 0.824625 0.081654
v 2.147416 0.824625 0.081654
v 2.147416 0.824625 0.081654
v 2.147416 4.242236 0.081654
v 2.147416 4.242236 0.081654
v -2.147416 4.242236 -0.133485
v -2.147416 0.824625 -0.133485
v -2.147416 0.824625 -0.133485
v 2.147416 0.824625 -0.133485
v 2.147416 0.824625 -0.133485
v 2.147416 4.242236 -0.133485
v 2.147416 4.242236 -0.133485
v -0.462184 2.847107 -0.315693
v -0.462184 2.847107 -0.315693
v -0.462184 2.352893 -0.315693
v -0.462184 2.352893 -0.315693
v -0.462184 2.352893 -0.315693
v 0.462184 2.352893 -0.315693
v 0.462184 2.352893 -0.315693
v 0.462184 2.352893 -0.315693
v 0.462184 2.847107 -0.315693
v 0.462184 2.847107 -0.315693
v -0.462184 2.847107 -0.513968
v -0.462184 2.847107 -0.513968
v -0.462184 2.847107 -0.513968
v -0.462184 2.352893 -0.513968
v -0.462184 2.352893 -0.513968
v -0.462184 2.352893 -0.513968
v 0.462184 2.352893 -0.513968
v 0.462184 2.352893 -0.513968
v 0.462184 2.352893 -0.513968
v 0.462184 2.847107 -0.513968
v 0.462184 2.847107 -0.513968
v 0.462184 2.847107 -0.513968
v 0.346277 2.785137 -0.564522
v 0.346277 2.414862 -0.564522
v -0.346277 2.414862 -0.564522
v -0.346277 2.785137 -0.564522
v -0.190217 2.498300 -0.576502
v 0.190217 2.498300 -0.576502
v 0.190217 2.498300 -0.576502
v 0.190217 2.701700 -0.576502
v 0.190217 2.701700 -0.576502
v -0.190217 2.701700 -0.576502
v -0.305701 2.278451 -0.349258
v -0.305701 2.278451 -0.349258
v -0.305701 2.278451 -0.349258
v 0.305701 2.278451 -0.349258
v 0.305701 2.278451 -0.349258
v 0.305701 2.278451 -0.349258
v -0.305701 2.278451 -0.480403
v -0.305701 2.278451 -0.480403
v -0.305701 2.278451 -0.480403
v 0.305701 2.278451 -0.480403
v 0.305701 2.278451 -0.480403
v 0.305701 2.278451 -0.480403
v -0.305701 0.100000 -0.349258
v -0.305701 0.100000 -0.349258
v 0.305701 0.100000 -0.349258
v 0.305701 0.100000 -0.349258
v -0.305701 0.100000 -0.480403
v -0.305701 0.100000 -0.480403
v 0.305701 0.100000 -0.480403
v 0.305701 0.100000 -0.480403
vt 1.000000 1.000000
vt 0.968750 0.500000
vt 1.000000 0.500000
vt 0.968750 1.000000
vt 0.937500 0.500000
vt 0.937500 1.000000
vt 0.906250 0.500000
vt 0.906250 1.000000
vt 0.875000 0.500000
vt 0.875000 1.000000
vt 0.843750 0.500000
vt 0.843750 1.000000
vt 0.812500 0.500000
vt 0.812500 1.000000
vt 0.781250 0.500000
vt 0.781250 1.000000
vt 0.750000 0.500000
vt 0.750000 1.000000
vt 0.718750 0.500000
vt 0.718750 1.000000
vt 0.687500 0.500000
vt 0.687500 1.000000
vt 0.656250 0.500000
vt 0.656250 1.000000
vt 0.625000 0.500000
vt 0.625000 1.000000
vt 0.593750 0.500000
vt 0.593750 1.000000
vt 0.562500 0.500000
vt 0.562500 1.000000
vt 0.531250 0.500000
vt 0.531250 1.000000
vt 0.500000 0.500000
vt 0.500000 1.000000
vt 0.468750 0.500000
vt 0.468750 1.000000
vt 0.437500 0.500000
vt 0.437500 1.000000
vt 0.406250 0.500000
vt 0.406250 1.000000
vt 0.375000 0.500000
vt 0.375000 1.000000
vt 0.343750 0.500000
vt 0.343750 1.000000
vt 0.312500 0.500000
vt 0.312500 1.000000
vt 0.281250 0.500000
vt 0.281250 1.000000
vt 0.250000 0.500000
vt 0.250000 1.000000
vt 0.218750 0.500000
vt 0.218750 1.000000
vt 0.187500 0.500000
vt 0.187500 1.000000
vt 0.156250 0.500000
vt 0.156250 1.000000
vt 0.125000 0.500000
vt 0.125000 1.000000
vt 0.093750 0.500000
vt 0.093750 1.000000
vt 0.062500 0.500000
vt 0.062500 1.000000
vt 0.031250 0.500000
vt 0.031250 1.000000
vt 0.000000 0.500000
vt 0.514611 0.203179
vt 0.550447 0.383337
vt 0.703179 0.485389
vt 1.000000 1.000000
vt 0.000000 1.000000
vt 0.000000 1.000000
vt 1.000000 1.000000
vt 0.000000 1.000000
vt 1.000000 1.000000
vt 0.000000 0.000000
vt 1.000000 0.000000
vt 0.000000 0.000000
vt 1.000000 0.000000
vt 1.000000 1.000000
vt 1.000000 0.000000
vt 0.000000 1.000000
vt 0.000000 0.000000
vt 0.000000 1.000000
vt 1.000000 0.000000
vt 1.000000 1.000000
vt 1.000000 1.000000
vt 0.000000 0.000000
vt 1.000000 0.000000
vt 0.000000 0.000000
vt 1.000000 1.000000
vt 1.000000 1.000000
vt 0.000000 1.000000
vt 1.000000 1.000000
vt 0.000000 1.000000
vt 0.000000 0.000000
vt 0.000000 1.000000
vt 1.000000 1.000000
vt 1.000000 1.000000
vt 0.000000 0.000000
vt 1.000000 0.000000
vt 0.000000 0.000000
vt 0.000000 0.000000
vt 1.000000 0.000000
vt 0.000000 0.000000
vt 1.000000 0.000000
vt 0.000000 0.000000
vt 1.000000 0.000000
vt 1.000000 1.000000
vt 1.000000 0.000000
vt 0.000000 1.000000
vt 0.000000 1.000000
vt 1.000000 1.000000
vt 0.000000 1.000000
vt 1.000000 1.000000
vt 0.000000 1.000000
vt 1.000000 1.000000
vt 0.000000 0.000000
vt 1.000000 0.000000
vt 1.000000 1.000000
vt 1.000000 0.000000
vt 1.000000 0.000000
vt 1.000000 0.000000
vt 1.000000 0.000000
vt 1.000000 0.000000
vt 1.000000 1.000000
vt 1.000000 1.000000
vt 0.000000 1.000000
vt 0.000000 0.000000
vt 0.000000 1.000000
vt 1.000000 0.000000
vt 1.000000 1.000000
vt 0.000000 1.000000
vt 0.000000 0.000000
vt 0.000000 1.000000
vt 1.000000 1.000000
vt 0.000000 1.000000
vt 1.000000 1.000000
vt 0.000000 0.000000
vt 1.000000 0.000000
vt 0.000000 0.000000
vt 0.000000 1.000000
vt 1.000000 0.000000
vt 0.000000 0.000000
vt 0.000000 0.000000
vt 1.000000 1.000000
vt 0.000000 1.000000
vt 0.000000 0.000000
vt 1.000000 0.000000
vt 1.000000 0.000000
vt 1.000000 0.000000
vt 1.000000 0.000000
vt 0.000000 0.000000
vt 1.000000 0.000000
vt 1.000000 0.000000
vt 0.000000 0.000000
vt 0.000000 0.000000
vt 0.000000 0.000000
vt 1.000000 0.000000
vt 0.000000 0.000000
vt 1.000000 0.000000
vt 0.000000 0.000000
vt 0.000000 0.000000
vt 0.000000 0.000000
vt 0.000000 0.000000
vt 1.000000 0.000000
vt 0.000000 0.000000
vt 1.000000 0.000000
vt 0.468750 1.000000
vt 0.125000 1.000000
vt 0.250000 1.000000
vt 0.875000 1.000000
vt 0.968750 1.000000
vt 0.625000 1.000000
vt 0.000000 0.000000
vt 1.000000 0.000000
vt 0.000000 0.000000
vt 0.531250 1.000000
vt 0.000000 0.000000
vt 1.000000 0.000000
vt 0.000000 0.000000
vt 0.000000 0.000000
vt 1.000000 1.000000
vt 0.000000 1.000000
vt 0.000000 1.000000
vt 0.750000 0.490000
vt 0.750000 0.010000
vt 0.796822 0.485388
vt 0.796822 0.014612
vt 0.841844 0.471731
vt 0.883337 0.449553
vt 0.919706 0.419706
vt 0.985388 0.296822
vt 0.949553 0.383337
vt 0.971731 0.341844
vt 0.990000 0.250000
vt 0.985388 0.203178
vt 0.971731 0.158156
vt 0.949553 0.116663
vt 0.919706 0.080294
vt 0.883337 0.050447
vt 0.841844 0.028269
vt 0.703178 0.014612
vt 0.658156 0.028269
vt 0.616663 0.050447
vt 0.580294 0.080294
vt 0.550447 0.116663
vt 0.528269 0.158156
vt 0.510000 0.250000
vt 0.514612 0.296822
vt 0.528269 0.341844
vt 0.580295 0.419706
vt 0.616663 0.449553
vt 0.658156 0.471731
vt 0.000000 1.000000
vt 1.000000 0.000000
vt 1.000000 1.000000
vt 0.000000 0.000000
vt 1.000000 0.000000
vt 1.000000 0.000000
vt 0.000000 0.000000
vt 1.000000 0.000000
vt 0.000000 1.000000
vt 1.000000 0.000000
vt 1.000000 0.000000
vt 0.000000 0.000000
vt 1.000000 1.000000
vt 1.000000 1.000000
vt 0.000000 1.000000
vt 1.000000 0.000000
vt 1.000000 0.000000
vt 0.000000 0.000000
vt 0.000000 0.000000
vt 0.000000 0.000000
vt 1.000000 0.000000
vt 0.000000 0.000000
vt 0.000000 0.000000
vt 0.406250 1.000000
vt 0.437500 1.000000
vt 0.375000 1.000000
vt 0.031250 1.000000
vt 0.062500 1.000000
vt 0.093750 1.000000
vt 0.156250 1.000000
vt 0.187500 1.000000
vt 0.218750 1.000000
vt 0.281250 1.000000
vt 0.312500 1.000000
vt 0.343750 1.000000
vt 0.906250 1.000000
vt 0.937500 1.000000
vt 0.562500 1.000000
vt 0.593750 1.000000
vt 0.656250 1.000000
vt 0.687500 1.000000
vt 0.718750 1.000000
vt 0.750000 1.000000
vt 0.781250 1.000000
vt 0.812500 1.000000
vt 0.843750 1.000000
vn 0.0000 0.0000 -1.0000
vn 0.1563 0.0000 -0.9877
vn 0.3827 0.0000 -0.9239
vn 0.5556 0.0000 -0.8314
vn 0.7071 0.0000 -0.7071
vn 0.8314 0.0000 -0.5556
vn 0.9239 0.0000 -0.3827
vn 0.9808 0.0000 -0.1951
vn 1.0000 0.0000 0.0000
vn 0.9808 0.0000 0.1951
vn 0.9239 0.0000 0.3827
vn 0.8314 0.0000 0.5556
vn 0.7071 0.0000 0.7071
vn 0.5556 0.0000 0.8314
vn 0.3827 0.0000 0.9239
vn 0.1563 0.0000 0.9877
vn 0.0000 0.0000 1.0000
vn -0.1563 0.0000 0.9877
vn -0.3827 0.0000 0.9239
vn -0.5556 0.0000 0.8314
vn -0.7071 0.0000 0.7071
vn -0.8314 0.0000 0.5556
vn -0.9239 0.0000 0.3827
vn -0.9808 0.0000 0.1951
vn -1.0000 0.0000 0.0000
vn -0.9808 0.0000 -0.1951
vn -0.9239 0.0000 -0.3827
vn -0.8314 0.0000 -0.5556
vn -0.7071 0.0000 -0.7071
vn -0.5556 0.0000 -0.8314
vn -0.3827 0.0000 -0.9239
vn -0.1563 0.0000 -0.9877
vn 0.0000 -1.0000 0.0000
vn -0.0107 -0.0113 0.9999
vn 0.0111 -0.0110 0.9999
vn 0.0107 -0.0113 0.9999
vn 0.0000 1.0000 0.0000
vn 0.0068 0.0080 0.9999
vn -0.0122 0.0051 0.9999
vn 0.0122 0.0051 0.9999
vn -0.0111 -0.0110 0.9999
vn 0.0955 0.1159 -0.9886
vn -0.1243 0.1186 -0.9851
vn 0.1243 0.1186 -0.9851
vn -0.7071 0.7071 0.0000
vn -0.0418 -0.0586 -0.9974
vn 0.1016 -0.0797 -0.9916
vn -0.1016 -0.0797 -0.9916
vn 0.0984 -0.1038 -0.9897
vn -0.0984 -0.1038 -0.9897
vn 0.0280 -0.0328 -0.9991
vn 0.0418 0.0586 -0.9974
vn 0.0418 -0.0586 -0.9974
vn -0.0418 0.0586 -0.9974
vn -0.0955 0.1159 -0.9886
vn -0.0280 0.0328 -0.9991
vn 0.0280 0.0328 -0.9991
vn -0.0280 -0.0328 -0.9991
vn 0.2910 0.0000 -0.9567
vn 0.3998 0.0000 -0.9166
vn 0.4296 -0.9030 0.0000
vn 0.0765 0.0000 -0.9970
vn -0.2910 0.0000 -0.9567
vn -0.3998 0.0000 -0.9166
vn 0.0000 0.5632 -0.8263
vn 0.0000 0.6321 -0.7748
vn 0.0000 0.6321 -0.7749
vn 0.0000 -0.5632 -0.8263
vn 0.0000 -0.5386 -0.8425
vn -0.0435 0.0000 -0.9991
vn 0.0000 0.1421 -0.9898
vn 0.0000 -0.1421 -0.9898
vn 0.0000 -0.4110 0.9116
vn -0.4296 -0.9030 0.0000
vn 0.0000 -0.4110 -0.9116
vn -0.0068 0.0080 0.9999
usemtl None
s 1
f 116/1/1 114/2/2 113/3/1
f 115/4/2 117/5/3 114/2/2
f 118/6/3 119/7/4 117/5/3
f 120/8/4 121/9/5 119/7/4
f 122/10/5 123/11/6 121/9/5
f 124/12/6 125/13/7 123/11/6
f 126/14/7 127/15/8 125/13/7
f 128/16/8 129/17/9 127/15/8
f 130/18/9 131/19/10 129/17/9
f 132/20/10 133/21/11 131/19/10
f 134/22/11 135/23/12 133/21/11
f 136/24/12 137/25/13 135/23/12
f 138/26/13 139/27/14 137/25/13
f 140/28/14 141/29/15 139/27/14
f 142/30/15 143/31/16 141/29/15
f 144/32/16 145/33/17 143/31/16
f 146/34/17 147/35/18 145/33/17
f 148/36/18 149/37/19 147/35/18
f 150/38/19 151/39/20 149/37/19
f 152/40/20 153/41/21 151/39/20
f 154/42/21 155/43/22 153/41/21
f 156/44/22 157/45/23 155/43/22
f 158/46/23 159/47/24 157/45/23
f 160/48/24 161/49/25 159/47/24
f 162/50/25 163/51/26 161/49/25
f 164/52/26 165/53/27 163/51/26
f 166/54/27 167/55/28 165/53/27
f 168/56/28 169/57/29 167/55/28
f 170/58/29 171/59/30 169/57/29
f 172/60/30 173/61/31 171/59/30
f 174/62/31 175/63/32 173/61/31
f 176/64/32 113/65/1 175/63/32
f 47/66/33 55/67/33 63/68/33
f 188/69/34 189/70/35 182/71/36
f 72/72/33 67/73/33 68/74/33
f 184/75/37 179/76/37 65/77/37
f 186/78/25 180/79/25 66/80/25
f 181/81/9 178/82/9 177/83/9
f 193/84/9 201/85/9 194/86/9
f 190/87/38 70/88/39 69/89/40
f 70/88/39 195/90/41 188/69/34
f 189/70/35 69/89/40 182/71/36
f 84/91/42 79/92/43 202/93/44
f 196/94/45 191/95/25 75/96/45
f 80/97/37 75/96/45 76/98/37
f 198/99/33 74/100/33 73/101/33
f 85/102/46 82/103/47 81/104/48
f 81/104/48 78/105/49 77/106/50
f 82/103/47 202/93/44 78/105/49
f 79/92/43 81/104/48 77/106/50
f 208/107/51 88/108/52 86/109/53
f 86/109/53 84/91/42 82/103/47
f 87/110/54 81/104/48 83/111/55
f 88/108/52 83/111/55 84/91/42
f 223/112/37 204/113/37 212/114/37
f 203/115/56 85/102/46 87/110/54
f 211/116/57 87/110/54 88/108/52
f 205/117/58 86/109/53 85/102/46
f 98/118/59 222/119/60 220/120/60
f 239/121/61 221/122/61 209/123/61
f 90/124/9 224/125/9 92/126/9
f 213/127/25 206/128/25 91/129/25
f 231/130/62 225/131/59 98/118/59
f 228/132/63 218/133/64 215/134/64
f 100/135/65 95/136/66 96/137/67
f 97/138/68 219/139/69 217/140/69
f 234/141/70 230/142/1 229/143/70
f 228/132/63 229/143/70 227/144/63
f 104/145/71 99/146/65 100/135/65
f 101/147/72 226/148/68 97/138/68
f 250/149/9 246/150/9 240/151/9
f 207/152/73 238/153/73 210/154/73
f 242/155/74 89/156/74 93/157/74
f 244/158/75 217/140/69 219/139/69
f 247/159/17 106/160/17 237/161/17
f 252/162/25 105/163/25 243/164/25
f 253/165/1 107/166/1 108/167/1
f 36/168/37 58/169/37 50/170/37
f 10/171/37 4/172/37 26/173/37
f 34/174/37 110/175/37 109/176/37
f 34/174/37 109/176/37 36/168/37
f 32/177/37 110/175/37 34/174/37
f 4/178/37 112/179/37 110/175/37
f 4/178/37 110/175/37 32/177/37
f 109/176/37 111/180/37 64/181/37
f 64/181/37 36/168/37 109/176/37
f 2/182/37 112/179/37 4/178/37
f 64/181/37 111/180/37 2/183/37
f 111/180/37 112/179/37 2/183/37
f 116/1/1 115/4/2 114/2/2
f 115/4/2 118/6/3 117/5/3
f 118/6/3 120/8/4 119/7/4
f 120/8/4 122/10/5 121/9/5
f 122/10/5 124/12/6 123/11/6
f 124/12/6 126/14/7 125/13/7
f 126/14/7 128/16/8 127/15/8
f 128/16/8 130/18/9 129/17/9
f 130/18/9 132/20/10 131/19/10
f 132/20/10 134/22/11 133/21/11
f 134/22/11 136/24/12 135/23/12
f 136/24/12 138/26/13 137/25/13
f 138/26/13 140/28/14 139/27/14
f 140/28/14 142/30/15 141/29/15
f 142/30/15 144/32/16 143/31/16
f 144/32/16 146/34/17 145/33/17
f 146/34/17 148/36/18 147/35/18
f 148/36/18 150/38/19 149/37/19
f 150/38/19 152/40/20 151/39/20
f 152/40/20 154/42/21 153/41/21
f 154/42/21 156/44/22 155/43/22
f 156/44/22 158/46/23 157/45/23
f 158/46/23 160/48/24 159/47/24
f 160/48/24 162/50/25 161/49/25
f 162/50/25 164/52/26 163/51/26
f 164/52/26 166/54/27 165/53/27
f 166/54/27 168/56/28 167/55/28
f 168/56/28 170/58/29 169/57/29
f 170/58/29 172/60/30 171/59/30
f 172/60/30 174/62/31 173/61/31
f 174/62/31 176/64/32 175/63/32
f 176/64/32 116/184/1 113/65/1
f 63/68/33 1/185/33 33/186/33
f 1/185/33 3/187/33 31/188/33
f 3/187/33 5/189/33 7/190/33
f 7/190/33 9/191/33 15/192/33
f 9/191/33 11/193/33 15/192/33
f 11/193/33 13/194/33 15/192/33
f 15/192/33 17/195/33 19/196/33
f 19/196/33 21/197/33 15/192/33
f 21/197/33 23/198/33 15/192/33
f 23/198/33 25/199/33 27/200/33
f 27/200/33 29/201/33 31/188/33
f 31/188/33 33/186/33 1/185/33
f 33/186/33 35/202/33 63/68/33
f 35/202/33 37/203/33 39/204/33
f 39/204/33 41/205/33 47/66/33
f 41/205/33 43/206/33 47/66/33
f 43/206/33 45/207/33 47/66/33
f 47/66/33 49/208/33 51/209/33
f 51/209/33 53/210/33 47/66/33
f 53/210/33 55/67/33 47/66/33
f 55/67/33 57/211/33 63/68/33
f 57/211/33 59/212/33 63/68/33
f 59/212/33 61/213/33 63/68/33
f 3/187/33 7/190/33 31/188/33
f 23/198/33 27/200/33 15/192/33
f 27/200/33 31/188/33 15/192/33
f 35/202/33 39/204/33 63/68/33
f 7/190/33 15/192/33 31/188/33
f 39/204/33 47/66/33 63/68/33
f 188/69/34 195/90/41 189/70/35
f 72/72/33 71/214/33 67/73/33
f 184/75/37 185/215/37 179/76/37
f 186/78/25 187/216/25 180/79/25
f 181/81/9 183/217/9 178/82/9
f 193/84/9 200/218/9 201/85/9
f 190/87/38 192/219/76 70/88/39
f 70/88/39 192/219/76 195/90/41
f 189/70/35 190/87/38 69/89/40
f 84/91/42 83/111/55 79/92/43
f 196/94/45 197/220/25 191/95/25
f 80/97/37 196/94/45 75/96/45
f 198/99/33 199/221/33 74/100/33
f 85/102/46 86/109/53 82/103/47
f 81/104/48 82/103/47 78/105/49
f 82/103/47 84/91/42 202/93/44
f 79/92/43 83/111/55 81/104/48
f 208/107/51 211/116/57 88/108/52
f 86/109/53 88/108/52 84/91/42
f 87/110/54 85/102/46 81/104/48
f 88/108/52 87/110/54 83/111/55
f 223/112/37 214/222/37 204/113/37
f 203/115/56 205/117/58 85/102/46
f 211/116/57 203/115/56 87/110/54
f 205/117/58 208/107/51 86/109/53
f 98/118/59 225/131/59 222/119/60
f 239/121/61 245/223/61 221/122/61
f 90/124/9 94/224/9 224/125/9
f 213/127/25 216/225/25 206/128/25
f 231/130/62 232/226/62 225/131/59
f 228/132/63 227/144/63 218/133/64
f 100/135/65 99/146/65 95/136/66
f 97/138/68 226/148/68 219/139/69
f 234/141/70 233/227/1 230/142/1
f 228/132/63 234/141/70 229/143/70
f 104/145/71 103/228/71 99/146/65
f 101/147/72 102/229/72 226/148/68
f 250/149/9 254/230/9 246/150/9
f 207/152/73 235/231/73 238/153/73
f 242/155/74 236/232/74 89/156/74
f 244/158/75 241/233/75 217/140/69
f 247/159/17 249/234/17 106/160/17
f 252/162/25 248/235/25 105/163/25
f 253/165/1 251/236/1 107/166/1
f 40/237/37 38/238/37 42/239/37
f 38/238/37 36/168/37 42/239/37
f 36/168/37 64/240/37 62/241/37
f 62/241/37 60/242/37 58/169/37
f 58/169/37 56/243/37 54/244/37
f 54/244/37 52/245/37 50/170/37
f 50/170/37 48/246/37 42/239/37
f 48/246/37 46/247/37 42/239/37
f 46/247/37 44/248/37 42/239/37
f 36/168/37 62/241/37 58/169/37
f 58/169/37 54/244/37 50/170/37
f 42/239/37 36/168/37 50/170/37
f 8/249/37 6/250/37 10/171/37
f 6/250/37 4/172/37 10/171/37
f 4/172/37 32/177/37 26/173/37
f 32/177/37 30/251/37 26/173/37
f 30/251/37 28/252/37 26/173/37
f 26/173/37 24/253/37 22/254/37
f 22/254/37 20/255/37 18/256/37
f 18/256/37 16/257/37 10/171/37
f 16/257/37 14/258/37 10/171/37
f 14/258/37 12/259/37 10/171/37
f 26/173/37 22/254/37 10/171/37
f 22/254/37 18/256/37 10/171/37
